<svg width="66" height="52" viewBox="0 0 66 52" fill="none" xmlns="http://www.w3.org/2000/svg">
<path d="M63.6063 19.8532C64.0927 20.1149 64.6991 19.9328 64.9608 19.4465C65.2225 18.9602 65.0404 18.3537 64.5541 18.092L63.6063 19.8532ZM32.5401 2L33.014 1.11941L32.5401 0.864402L32.0662 1.11941L32.5401 2ZM0.526128 18.092C0.0397893 18.3537 -0.142306 18.9602 0.119406 19.4465C0.381119 19.9328 0.987534 20.1149 1.47387 19.8532L0.526128 18.092ZM64.5541 18.092L33.014 1.11941L32.0662 2.88059L63.6063 19.8532L64.5541 18.092ZM32.0662 1.11941L0.526128 18.092L1.47387 19.8532L33.014 2.88059L32.0662 1.11941Z" fill="#333C2E"/>
<path d="M57.097 24.4184C59.4744 24.4184 61.4017 22.4911 61.4017 20.1137C61.4017 17.7363 59.4744 15.8091 57.097 15.8091C54.7196 15.8091 52.7924 17.7363 52.7924 20.1137C52.7924 22.4911 54.7196 24.4184 57.097 24.4184Z" stroke="#333C2E" stroke-width="2" stroke-miterlimit="10"/>
<path d="M57.097 41.6232C59.4744 41.6232 61.4017 39.696 61.4017 37.3186C61.4017 34.9412 59.4744 33.0139 57.097 33.0139C54.7196 33.0139 52.7924 34.9412 52.7924 37.3186C52.7924 39.696 54.7196 41.6232 57.097 41.6232Z" stroke="#333C2E" stroke-width="2" stroke-miterlimit="10"/>
<path d="M57.097 50.2258C59.4744 50.2258 61.4017 48.2985 61.4017 45.9211C61.4017 43.5437 59.4744 41.6165 57.097 41.6165C54.7196 41.6165 52.7924 43.5437 52.7924 45.9211C52.7924 48.2985 54.7196 50.2258 57.097 50.2258Z" stroke="#333C2E" stroke-width="2" stroke-miterlimit="10"/>
<path d="M7.98312 24.4184C10.3605 24.4184 12.2878 22.4911 12.2878 20.1137C12.2878 17.7363 10.3605 15.8091 7.98312 15.8091C5.60572 15.8091 3.67847 17.7363 3.67847 20.1137C3.67847 22.4911 5.60572 24.4184 7.98312 24.4184Z" stroke="#333C2E" stroke-width="2" stroke-miterlimit="10"/>
<path d="M57.097 33.0209C59.4744 33.0209 61.4017 31.0937 61.4017 28.7163C61.4017 26.3389 59.4744 24.4116 57.097 24.4116C54.7196 24.4116 52.7924 26.3389 52.7924 28.7163C52.7924 31.0937 54.7196 33.0209 57.097 33.0209Z" stroke="#333C2E" stroke-width="2" stroke-miterlimit="10"/>
<path d="M7.98312 33.0209C10.3605 33.0209 12.2878 31.0937 12.2878 28.7163C12.2878 26.3389 10.3605 24.4116 7.98312 24.4116C5.60572 24.4116 3.67847 26.3389 3.67847 28.7163C3.67847 31.0937 5.60572 33.0209 7.98312 33.0209Z" stroke="#333C2E" stroke-width="2" stroke-miterlimit="10"/>
<path d="M7.98312 41.6232C10.3605 41.6232 12.2878 39.696 12.2878 37.3186C12.2878 34.9412 10.3605 33.0139 7.98312 33.0139C5.60572 33.0139 3.67847 34.9412 3.67847 37.3186C3.67847 39.696 5.60572 41.6232 7.98312 41.6232Z" stroke="#333C2E" stroke-width="2" stroke-miterlimit="10"/>
<path d="M7.98312 50.2258C10.3605 50.2258 12.2878 48.2985 12.2878 45.9211C12.2878 43.5437 10.3605 41.6165 7.98312 41.6165C5.60572 41.6165 3.67847 43.5437 3.67847 45.9211C3.67847 48.2985 5.60572 50.2258 7.98312 50.2258Z" stroke="#333C2E" stroke-width="2" stroke-miterlimit="10"/>
<path d="M7.34079 15.5562H57.6027" stroke="#333C2E" stroke-width="2" stroke-miterlimit="10"/>
<path d="M7.34079 24.4185H57.6027" stroke="#333C2E" stroke-width="2" stroke-miterlimit="10"/>
<path d="M7.34079 41.6233H25.8986" stroke="#333C2E" stroke-width="2" stroke-miterlimit="10"/>
<path d="M39.0447 41.6233H57.6025" stroke="#333C2E" stroke-width="2" stroke-miterlimit="10"/>
<path d="M7.34079 33.0208H25.8986" stroke="#333C2E" stroke-width="2" stroke-miterlimit="10"/>
<path d="M39.0447 33.0208H57.6025" stroke="#333C2E" stroke-width="2" stroke-miterlimit="10"/>
<path d="M39.0447 24.4185V50.2259" stroke="#333C2E" stroke-width="2" stroke-miterlimit="10"/>
<path d="M25.8984 24.4185V50.2259" stroke="#333C2E" stroke-width="2" stroke-miterlimit="10"/>
<path d="M7.98309 50.2258H57.0971" stroke="#333C2E" stroke-width="2" stroke-miterlimit="10"/>
<path d="M41.4295 6.78294V2H48.7543V10.7255" stroke="#333C2E" stroke-width="2" stroke-miterlimit="10"/>
</svg>
