<svg width="26" height="26" viewBox="0 0 26 26" fill="none" xmlns="http://www.w3.org/2000/svg">
<path d="M3.1138 4.89444C2.14748 6.74783 2.39487 10.2266 2.39487 13.0115C2.39487 15.7964 2.1127 19.2983 3.1138 21.1285C3.62401 22.0678 4.6 22.8273 5.78663 23.1848C7.64775 23.7492 10.8501 23.5462 13.3915 23.5462C15.9329 23.5462 19.1566 23.726 20.8457 22.98C23.963 21.6001 23.5688 17.5338 23.5688 12.9091C23.5688 10.1493 23.7891 6.50818 22.8479 4.79201C21.611 2.52697 18.8261 2.37622 15.2411 2.37622C12.889 2.37622 10.508 2.33564 8.56188 2.42841C5.78276 2.56176 4.13616 2.92896 3.1138 4.89638V4.89444ZM8.71843 0.0648033C10.8269 -0.0356934 13.0591 0.010684 15.2449 0.010684C17.479 0.010684 19.5566 0.033876 21.1568 0.578878C24.4964 1.7114 25.7178 4.13298 25.9362 8.69592C26.0387 10.8875 25.9362 12.7544 25.9362 15.1683C25.9362 17.4875 25.8995 19.5167 25.37 21.0802C24.7902 22.7751 23.8432 23.9463 22.5445 24.729C20.032 26.2481 14.8139 25.9137 10.825 25.9137C8.57928 25.9137 6.52103 25.9466 4.86476 25.3997C3.35222 24.9154 2.07155 23.89 1.26814 22.52C-0.318548 19.94 0.0331877 15.0427 0.0331877 10.8547C0.0331877 8.37318 0.019666 6.53331 0.547274 4.89251C1.01409 3.37213 2.01847 2.07372 3.37278 1.23985C4.80872 0.33924 6.36062 0.173027 8.71843 0.0609343" fill="white"/>
<path d="M19.6108 4.53302C20.8032 4.33976 21.9686 5.55732 21.3057 6.79614C20.4225 8.45047 17.4772 7.20005 18.4802 5.3022C18.5938 5.09293 18.7556 4.9137 18.9522 4.77928C19.1488 4.64487 19.3745 4.55913 19.6108 4.52915" fill="white"/>
<path d="M8.66437 13.0134C8.66721 13.5786 8.78208 14.1375 9.00235 14.658C9.22262 15.1785 9.54391 15.6502 9.94763 16.0457C12.5412 18.6045 17.3399 16.7975 17.2916 12.911C17.2646 10.3541 15.2218 8.50842 12.6649 8.69589C10.3303 8.86982 8.63345 10.5203 8.65857 13.0134H8.66437ZM12.7171 6.33228C13.6215 6.29714 14.5238 6.4426 15.3712 6.76017C16.2187 7.07773 16.9944 7.56103 17.653 8.18181C18.9138 9.45647 19.6338 11.1686 19.663 12.9612C19.6782 13.8412 19.5126 14.715 19.1766 15.5284C18.8405 16.3419 18.341 17.0777 17.7091 17.6904C16.4608 18.9197 14.7858 19.619 13.034 19.6423C9.30407 19.6597 6.31622 16.7685 6.30269 13.0134C6.2853 9.21963 9.03543 6.50042 12.7248 6.33228" fill="white"/>
</svg>
